<svg width="1600" height="900" viewBox="0 0 1600 900" fill="none" xmlns="http://www.w3.org/2000/svg">
  <rect width="1600" height="900" rx="40" fill="#0F1419"/>
  <rect x="40" y="40" width="1520" height="820" rx="34" fill="url(#bg)" stroke="rgba(255,255,255,0.08)"/>
  <rect x="90" y="90" width="1420" height="104" rx="24" fill="#141C23" stroke="rgba(255,255,255,0.08)"/>
  <text x="136" y="148" fill="#F3F7FB" font-size="34" font-family="Arial, sans-serif" font-weight="700">Enterprise Lakehouse Foundation</text>
  <text x="136" y="184" fill="#A8B2C1" font-size="20" font-family="Arial, sans-serif">Azure Data Lake • Databricks • Synapse-ready serving layers</text>

  <rect x="120" y="250" width="380" height="460" rx="28" fill="#131B22" stroke="rgba(74,154,142,0.35)"/>
  <rect x="610" y="250" width="380" height="460" rx="28" fill="#131B22" stroke="rgba(74,154,142,0.35)"/>
  <rect x="1100" y="250" width="380" height="460" rx="28" fill="#131B22" stroke="rgba(74,154,142,0.35)"/>

  <text x="154" y="308" fill="#68C1B0" font-size="26" font-family="Arial, sans-serif" font-weight="700">Bronze</text>
  <text x="644" y="308" fill="#68C1B0" font-size="26" font-family="Arial, sans-serif" font-weight="700">Silver</text>
  <text x="1134" y="308" fill="#68C1B0" font-size="26" font-family="Arial, sans-serif" font-weight="700">Gold</text>

  <rect x="154" y="346" width="312" height="74" rx="18" fill="#192028"/>
  <rect x="154" y="444" width="312" height="74" rx="18" fill="#192028"/>
  <rect x="154" y="542" width="312" height="74" rx="18" fill="#192028"/>
  <text x="182" y="390" fill="#F3F7FB" font-size="22" font-family="Arial, sans-serif">ERP extracts</text>
  <text x="182" y="488" fill="#F3F7FB" font-size="22" font-family="Arial, sans-serif">CRM events</text>
  <text x="182" y="586" fill="#F3F7FB" font-size="22" font-family="Arial, sans-serif">Operations files</text>

  <rect x="644" y="346" width="312" height="74" rx="18" fill="#192028"/>
  <rect x="644" y="444" width="312" height="74" rx="18" fill="#192028"/>
  <rect x="644" y="542" width="312" height="74" rx="18" fill="#192028"/>
  <text x="672" y="390" fill="#F3F7FB" font-size="22" font-family="Arial, sans-serif">Notebook transforms</text>
  <text x="672" y="488" fill="#F3F7FB" font-size="22" font-family="Arial, sans-serif">Quality checkpoints</text>
  <text x="672" y="586" fill="#F3F7FB" font-size="22" font-family="Arial, sans-serif">Delta curated layers</text>

  <rect x="1134" y="346" width="312" height="74" rx="18" fill="#192028"/>
  <rect x="1134" y="444" width="312" height="74" rx="18" fill="#192028"/>
  <rect x="1134" y="542" width="312" height="74" rx="18" fill="#192028"/>
  <text x="1162" y="390" fill="#F3F7FB" font-size="22" font-family="Arial, sans-serif">Finance marts</text>
  <text x="1162" y="488" fill="#F3F7FB" font-size="22" font-family="Arial, sans-serif">Sales semantic layer</text>
  <text x="1162" y="586" fill="#F3F7FB" font-size="22" font-family="Arial, sans-serif">Executive dashboards</text>

  <path d="M500 478H610" stroke="url(#flow)" stroke-width="8" stroke-linecap="round"/>
  <path d="M990 478H1100" stroke="url(#flow)" stroke-width="8" stroke-linecap="round"/>
  <circle cx="555" cy="478" r="10" fill="#68C1B0"/>
  <circle cx="1045" cy="478" r="10" fill="#68C1B0"/>

  <rect x="120" y="744" width="1360" height="84" rx="22" fill="#141C23" stroke="rgba(255,255,255,0.08)"/>
  <text x="160" y="795" fill="#A8B2C1" font-size="24" font-family="Arial, sans-serif">Unified raw, refined, and business-ready layers for scalable analytics delivery.</text>

  <defs>
    <linearGradient id="bg" x1="80" y1="70" x2="1480" y2="830" gradientUnits="userSpaceOnUse">
      <stop stop-color="#111920"/>
      <stop offset="1" stop-color="#17232B"/>
    </linearGradient>
    <linearGradient id="flow" x1="500" y1="478" x2="1100" y2="478" gradientUnits="userSpaceOnUse">
      <stop stop-color="#4A9A8E"/>
      <stop offset="1" stop-color="#79B7FF"/>
    </linearGradient>
  </defs>
</svg>
